<?xml version="1.0" encoding="utf-8"?>
<!-- Generator: Adobe Illustrator 21.0.0, SVG Export Plug-In . SVG Version: 6.00 Build 0)  -->
<svg version="1.1" id="Layer_1" width="168.88933" height="62.666668" xmlns="http://www.w3.org/2000/svg" xmlns:xlink="http://www.w3.org/1999/xlink" x="0px" y="0px"
	 viewBox="0 0 920 188" style="enable-background:new 0 0 920 188;" xml:space="preserve">
<style type="text/css">
	.st0{fill:#B1D055;}
	.st1{fill:#66933D;}
	.st2{fill:#42862F;}
	.st3{fill:#2A0F11;}
	.st4{fill:none;}
	.st5{fill:#A39B7A;}
	.st6{fill:#7D705A;}
</style>
<g>
	<g>
		<path class="st0" d="M140,28.2c0,0,7.6,3.6,9.4-7.7c0,0-8-3.1-9.6,7c0,0,4.3-4.5,7-5C146.8,22.5,143.1,24.8,140,28.2z"/>
		<path class="st1" d="M67.8,99.4c0,0,3.8,7.4-7.4,9.5c0,0-3.3-7.8,6.6-9.7c0,0-4.3,4.4-4.7,7.1C62.4,106.2,64.6,102.5,67.8,99.4z"
			/>
		<path class="st2" d="M66.6,96.8c0,0-3.5,6.2-10.3-0.8c0,0,4-6,10.1,0.1c0,0-5.2-1-7.3,0C59.1,96.2,62.8,96,66.6,96.8z"/>
		<path class="st0" d="M69.2,97.7c0,0,6-1,5,7.3c0,0-6.2,0.5-5.3-6.9c0,0,2.1,4,3.9,4.9C72.7,103.1,70.6,100.7,69.2,97.7z"/>
		<path class="st0" d="M49.7,90.2c0,0,4.8-2.5,6.2,4.8c0,0-5.1,2.2-6.4-4.3c0,0,2.9,2.8,4.6,3C54.2,93.7,51.8,92.3,49.7,90.2z"/>
		<path class="st1" d="M46.4,89.9c0,0,4.4,0.4,2.2,6c0,0-4.4-0.7-2.5-5.7c0,0,0.7,3.2,1.8,4.1C47.9,94.3,46.9,92.3,46.4,89.9z"/>
		<path class="st2" d="M43.2,92.4c0,0,6.4,2.4,0.8,9.9c0,0-6.3-2.9-1.4-9.6c0,0-0.2,5.1,1.1,6.9C43.7,99.6,42.9,96.2,43.2,92.4z"/>
		<path class="st1" d="M39.8,93.6c0,0,3.9,6.1-5.6,8.9c0,0-3.5-6.5,4.9-9c0,0-3.4,4.2-3.5,6.5C35.7,100,37.2,96.6,39.8,93.6z"/>
		<path class="st2" d="M37,93.3c0,0-3,7.8-12.1,0.8c0,0,3.7-7.7,11.8-1.5c0,0-6.2-0.3-8.5,1.2C28.2,93.8,32.4,93,37,93.3z"/>
		<path class="st0" d="M37.6,92.6c0,0-6.2,0.1-4-8.1c0,0,6.3,0.4,4.4,7.6c0,0-1.5-4.4-3.2-5.5C34.8,86.7,36.6,89.4,37.6,92.6z"/>
		<path class="st1" d="M40,91.3c0,0-4.8-1.3-1.2-7.1c0,0,4.7,1.7,1.6,6.8c0,0-0.2-3.7-1.2-4.9C39.2,86.1,40,88.6,40,91.3z"/>
		<path class="st2" d="M34.3,82.2c0,0,1.6,4-4.2,4.5c0,0-1.3-4.2,3.9-4.7c0,0-2.4,2-2.8,3.4C31.2,85.4,32.4,83.6,34.3,82.2z"/>
		<path class="st0" d="M30.1,80.6c0,0,2.2,5.2-5.5,6.1c0,0-1.8-5.5,5-6.3c0,0-3.2,2.8-3.6,4.6C26,85,27.7,82.6,30.1,80.6z"/>
		<path class="st2" d="M26.1,79.8c0,0,0.6,4.3-5.3,3.4c0,0-0.2-4.4,4.9-3.6c0,0-2.9,1.4-3.5,2.6C22.2,82.2,23.9,80.7,26.1,79.8z"/>
		<path class="st1" d="M25.9,78.8c0,0-6,0.9-4.9-7.2c0,0,6.1-0.5,5.2,6.8c0,0-2-4-3.8-4.9C22.4,73.5,24.5,75.8,25.9,78.8z"/>
		<path class="st1" d="M29,79c0,0-5.6-2.8,0.3-9.1c0,0,5.5,3.3,0.3,8.9c0,0,0.7-4.6-0.3-6.5C29.3,72.4,29.6,75.6,29,79z"/>
		<path class="st2" d="M32.8,80.3c0,0-4.6-3.2,1.3-8c0,0,4.5,3.6-0.8,7.9c0,0,1.2-4,0.5-5.7C33.8,74.5,33.7,77.4,32.8,80.3z"/>
		<path class="st0" d="M36,81c0,0-2.7-6.3,6.7-7.3c0,0,2.2,6.6-6.1,7.6c0,0,3.9-3.3,4.3-5.5C40.9,75.7,38.9,78.6,36,81z"/>
		<path class="st2" d="M39.9,82.9c0,0,0-4.6,6.1-2.9c0,0-0.3,4.7-5.8,3.2c0,0,3.3-1.1,4.1-2.4C44.3,80.8,42.3,82.1,39.9,82.9z"/>
		<path class="st1" d="M50.7,86.5c0,0-4.1,1.4-4.4-4.5c0,0,4.3-1.1,4.6,4.1c0,0-2-2.6-3.3-3C47.5,83.2,49.3,84.5,50.7,86.5z"/>
		<path class="st0" d="M51,81.7c0,0-3.6,3.6-7-2.4c0,0,3.9-3.4,6.9,2c0,0-3.4-1.7-5-1.4C45.9,79.8,48.5,80.4,51,81.7z"/>
		<path class="st2" d="M50.9,78.1c0,0-3.8,2.4-5.5-3.5c0,0,4.1-2.1,5.6,3.1c0,0-2.6-2.1-4.1-2.2C47,75.4,49.1,76.4,50.9,78.1z"/>
		<path class="st1" d="M51.3,76.5c0,0-4-3,1.5-7.1c0,0,3.8,3.4-1.1,7c0,0,1.2-3.5,0.7-5.1C52.5,71.4,52.3,74,51.3,76.5z"/>
		<path class="st2" d="M52.2,77.3c0,0,0.8-4.7,6.6-1.8c0,0-1.2,4.7-6.3,2.2c0,0,3.5-0.5,4.6-1.6C57,76.1,54.8,77,52.2,77.3z"/>
		<path class="st1" d="M52.8,79.3c0,0,2.8-3.2,5.9,1.7c0,0-3.1,3-5.8-1.3c0,0,2.9,1.2,4.2,0.9C57.1,80.6,54.9,80.3,52.8,79.3z"/>
		<path class="st0" d="M54.5,82.8c0,0,0.4-3.7,5.1-1.8c0,0-0.7,3.8-4.9,2c0,0,2.7-0.6,3.5-1.5C58.2,81.6,56.5,82.4,54.5,82.8z"/>
		<path class="st2" d="M60.3,84.2c0,0-0.3-3-1.1-4c0,0,0.1,0.3,0.2,0.8c0,0.1,0.1,0.3,0.1,0.4v0c0.2,0.8,0.4,1.8,0.5,2.9v0
			c0,0,0,0,0,0c-0.2-0.1-1.2-0.4-1.7-1.2c-0.2-0.3-0.4-0.7-0.4-1.2c0,0,0-0.1,0-0.2c0-0.1,0-0.1,0-0.2c0-0.3,0-0.7,0.1-1
			c0-0.1,0.1-0.3,0.1-0.4c0.1-0.4,0.4-0.9,0.7-1.5C58.8,78.7,62.7,79.9,60.3,84.2z"/>
		<path class="st1" d="M64.9,84.2c0,0-4.6,0.5-3.5-5.8c0,0,4.8-0.1,3.8,5.4c0,0-1.4-3.2-2.8-3.9C62.4,80,63.9,81.9,64.9,84.2z"/>
		<path class="st0" d="M68.7,84.7c0,0-5.1-0.8-2.1-7.2c0,0,5.2,1.2,2.5,6.9c0,0-0.6-3.8-1.9-5C67.2,79.4,68.3,81.9,68.7,84.7z"/>
		<path class="st0" d="M70.1,85c0,0-1.8-5.5,6.1-5.8c0,0,1.4,5.7-5.6,6c0,0,3.4-2.6,4-4.4C74.6,80.9,72.7,83.2,70.1,85z"/>
		<path class="st0" d="M22.9,79.1c0,0-4.6,5.5-10-2.7c0,0,5.1-5.2,9.9,2c0,0-4.9-2-7.2-1.4C15.7,77.1,19.3,77.6,22.9,79.1z"/>
		<path class="st1" d="M71.8,96.7c0,0,4.1-3.7,7.4,3c0,0-4.4,3.5-7.4-2.5c0,0,3.6,2,5.4,1.8C77.2,99,74.4,98.2,71.8,96.7z"/>
		<path class="st1" d="M75,77.6c0,0-2.6-6-9.4-0.3c0,0,3.1,5.9,9.2,0.8c0,0-4.8,0.5-6.6-0.7C68.2,77.5,71.5,78,75,77.6z"/>
		<path class="st2" d="M70.9,73.4c0,0-0.9-7-9.7-3.1c0,0,1.5,7.1,9.3,3.7c0,0-5.2-1-6.7-2.7C63.8,71.2,67.1,72.8,70.9,73.4z"/>
		<path class="st0" d="M64.9,67.4c0,0-5.3-3.2-7.4,5c0,0,5.6,2.8,7.5-4.4c0,0-3.5,3-5.5,3.1C59.6,71.1,62.4,69.6,64.9,67.4z"/>
		<path class="st2" d="M57.9,66.6c0,0-5.1-2.9-6.9,5c0,0,5.5,2.5,7-4.5c0,0-3.2,3-5.1,3.2C52.9,70.4,55.6,68.9,57.9,66.6z"/>
		<path class="st1" d="M52.4,66c0,0-6-6.4-12.1,4c0,0,6.6,6,12.1-3.2c0,0-5.9,2.8-8.7,2.2C43.6,69,48.1,68.2,52.4,66z"/>
		<path class="st2" d="M42.9,60.2c0,0-5.2-3.2-7.3,4.8c0,0,5.5,2.8,7.4-4.3c0,0-3.4,2.9-5.4,3C37.6,63.8,40.4,62.4,42.9,60.2z"/>
		<path class="st2" d="M35.6,59c0,0-5.6-4.4-9.2,4.7c0,0,6.1,4,9.3-4c0,0-4.4,3-6.8,2.8C28.9,62.4,32.4,61.2,35.6,59z"/>
		<path class="st0" d="M33,56.4c0,0,2.9-6.6-6.9-7.9c0,0-2.4,7,6.3,8.1c0,0-4-3.6-4.5-5.9C27.9,50.8,30,53.9,33,56.4z"/>
		<path class="st1" d="M37.2,56.1c0,0,3.9-3.9-2.7-7.5c0,0-3.7,4.3,2.2,7.5c0,0-1.8-3.7-1.5-5.5C35.2,50.7,35.8,53.5,37.2,56.1z"/>
		<path class="st1" d="M30.2,57.3c0,0-4.5-7-11.9,1.6c0,0,5.1,6.8,11.8-0.9c0,0-6,1.6-8.5,0.5C21.5,58.6,25.8,58.6,30.2,57.3z"/>
		<path class="st2" d="M38.3,48c0,0,1.2-5.8-6.9-5.1c0,0-0.7,6,6.4,5.4c0,0-3.8-2.2-4.6-3.9C33.3,44.4,35.5,46.5,38.3,48z"/>
		<path class="st2" d="M38.2,42.4c0,0,1.7-5.9-6.7-5.9c0,0-1.3,6.1,6.2,6.1c0,0-3.8-2.6-4.4-4.5C33.3,38.2,35.4,40.6,38.2,42.4z"/>
		<path class="st1" d="M39.3,39.6c0,0,6.8-2.9,0.4-10.6c0,0-6.6,3.5-1,10.4c0,0-0.5-5.4,0.8-7.5C39.5,31.8,38.8,35.6,39.3,39.6z"/>
		<path class="st1" d="M39.9,42.6c0,0,6,4.4,9.5-5.1c0,0-6.4-4-9.6,4.4c0,0,4.5-3.2,7-3.1C46.8,38.7,43.2,40.1,39.9,42.6z"/>
		<path class="st0" d="M40.3,45c0,0,0.5,7.9,10.6,4.1c0,0-1.2-7.9-10.1-4.6c0,0,5.7,1.4,7.3,3.4C48.1,47.8,44.5,45.9,40.3,45z"/>
		<path class="st2" d="M48.5,58.1c0,0,6.1-2.7,0.2-9.6c0,0-6,3.2-0.8,9.4c0,0-0.5-4.9,0.6-6.8C48.6,51.1,48.1,54.5,48.5,58.1z"/>
		<path class="st3" d="M86.3,100.6c-0.7-0.6-1.3-1.1-1.7-1.5c0,0-0.1-0.1-0.1-0.1c0.1,0.1,0.2,0.1,0.3,0.2c0,0,0.1,0.1,0.1,0.1
			c0,0,0,0,0,0c0,0,0,0,0.1,0.1c0.1,0.1,0.3,0.2,0.4,0.4C85.6,100,86,100.3,86.3,100.6z"/>
		<path class="st3" d="M58.1,56.6c-0.3,0.6-0.6,1.1-1,1.6c-0.1-0.7-0.2-1.4-0.2-2.3C57.7,56.3,58.1,56.6,58.1,56.6z"/>
		<path class="st3" d="M60,84.3L60,84.3C60,84.4,60,84.4,60,84.3C59.9,84.3,60,84.3,60,84.3z"/>
		<path class="st3" d="M66.6,89.1c-0.9-0.2-2-0.4-3.2-0.5c0-0.1,0-0.2,0-0.3C63.4,88.3,65.2,88.1,66.6,89.1z"/>
		<path class="st3" d="M69.2,27.8c0,1.4-0.2,2.6-0.5,3.5c-0.2-1.1-0.3-2.3-0.3-3.6C68.9,27.7,69.2,27.8,69.2,27.8z"/>
		<path class="st3" d="M79.3,36.2L79.3,36.2c-0.1,0.3-0.3,0.5-0.4,0.7l0.3-2.9C79.2,34,79.2,34.9,79.3,36.2z"/>
		<path class="st3" d="M83.2,84.3c0,0,0,0.2-0.1,0.4c-0.4-0.3-0.8-0.7-1.2-1.1C82.3,83.8,82.8,84,83.2,84.3z"/>
		<path class="st3" d="M84.7,99.2c0,0-0.1-0.1-0.1-0.1c0,0-0.1-0.1-0.1-0.1C84.5,99,84.6,99.1,84.7,99.2z"/>
		<path class="st3" d="M86.8,88.2c-0.4-0.4-0.8-0.8-1.2-1.2c0,0-0.1-0.1-0.1-0.1c-0.4-0.4-0.9-0.8-1.3-1.3c0.8-0.2,1.8-0.4,3.1-0.4
			C87.2,85.3,87.5,86.8,86.8,88.2z"/>
		<path class="st3" d="M94.9,74.1c-0.1,0.2-0.2,0.5-0.4,0.7c-0.3-0.4-0.6-0.9-1-1.5C94.4,73.7,94.9,74.1,94.9,74.1z"/>
		<path class="st3" d="M99.3,59.1c-0.1,0-0.2,0-0.3,0c-0.5-1.4-0.7-2.7-0.8-3.8C99.6,57,99.3,59.1,99.3,59.1z"/>
		<path class="st3" d="M106.1,74.9c-0.1,0.6-0.2,1-0.3,1.4c0-0.5,0-1,0.1-1.5C106,74.8,106.1,74.9,106.1,74.9z"/>
		<path class="st3" d="M107.1,27.9c-0.5-0.6-1.1-1.1-1.8-1.6c0,0-0.1-0.1-0.1-0.1c-0.5-0.4-1.1-0.7-1.7-1c0,0,0,0,0,0
			c-8.3-3.9-7.6-9.1-7.6-9.1s1,5.1,10.6,7.3c0.1,0.1,0.1,0.2,0.2,0.2c0,0,0.1,0.1,0.1,0.1c0,0,0.1,0.1,0.1,0.1h0
			C107.2,25.6,107.3,26.9,107.1,27.9z"/>
		<path class="st3" d="M109.9,54.7c-0.3,2.1-0.9,3.4-1.6,4.2c0.3-1.4,0.6-2.9,0.8-4.4C109.6,54.6,109.9,54.7,109.9,54.7z"/>
		<path class="st3" d="M114,43.7c-3.3-1.4-2.4-5-2.4-5c0.9,0,1.6,0.1,2.2,0.3c0.1,0.8,0.1,1.5,0.1,2.2c0,0.2,0,0.3,0,0.5
			C114,42.4,114,43.1,114,43.7z"/>
		<path class="st3" d="M122.3,49.5c-0.4,0-0.9-0.1-1.2-0.2c0-0.4,0-0.8,0-1.2c0,0,0,0,0,0c0,0,0-0.1,0-0.1c0.1-0.6,0.2-1.3,0.3-1.9
			C122.9,47.4,122.3,49.5,122.3,49.5z"/>
		<path class="st3" d="M124,40.3c-0.4,1.9-1.1,3-1.9,3.6C122.7,42.4,123.5,41.1,124,40.3z"/>
		<path class="st3" d="M131.1,36.4c-0.2,0.6-0.5,1.2-0.8,1.8c0,0,0,0,0,0c-0.1,0.1-0.1,0.3-0.2,0.4l0,0c-0.6,1.1-1.1,2-1.6,2.7
			c-1.6-3.4,1.5-5.8,1.5-5.8C130.5,35.8,130.8,36.1,131.1,36.4z"/>
		<path class="st3" d="M132.7,42.8c-0.3,0.4-0.5,0.7-0.8,1C132.2,43.5,132.5,43.2,132.7,42.8z"/>
		<path class="st2" d="M83.2,84.3c0,0,0,0.2-0.1,0.4c-0.6,1.4-2.9,5.5-8.9,2.3c0,0,4.9-0.5,6.5-2c0,0-3.2,1.2-6.9,1.5
			c0,0,1.2-5.8,8-2.8C82.3,83.8,82.8,84,83.2,84.3z"/>
		<path class="st1" d="M86.8,88.2c-0.6,1.2-2,2.2-4.9,2.2c0,0,2.8-1.9,3.7-3.4c0.1-0.1,0.1-0.2,0.1-0.3c0,0-0.1,0.1-0.2,0.2
			c-0.6,0.6-2.1,2.1-4,3.3c0,0-0.9-3.4,2.7-4.5c0.8-0.2,1.8-0.4,3.1-0.4C87.2,85.3,87.5,86.8,86.8,88.2z"/>
		<path class="st1" d="M59.6,56.4c-0.4,0.7-0.7,1.3-1.1,1.9C54.3,64.2,50,60,50,60c3.4-1.9,6.9-2.8,6.9-2.8
			c-2.3-0.4-6.9,2.1-6.9,2.1c2.8-5.3,6.3-4.7,8.2-3.8C59,55.9,59.6,56.4,59.6,56.4z"/>
		<path class="st1" d="M57,53.3c0,0,5.6-4.4-2.3-10c0,0-5.3,4.9,1.7,9.9c0,0-1.8-4.9-1.1-7.2C55.2,46,55.6,49.7,57,53.3z"/>
		<path class="st0" d="M57.9,54.5c0,0,5.5,4.5,9.3-4.4c0,0-5.9-4.2-9.4,3.8c0,0,4.5-2.8,6.8-2.6C64.6,51.2,61.1,52.4,57.9,54.5z"/>
		<path class="st2" d="M60.2,59.6c0,0,4.5,3.8,7.8-3.5c0,0-4.9-3.5-7.8,3c0,0,3.8-2.3,5.7-2.1C65.9,56.9,62.9,57.8,60.2,59.6z"/>
		<path class="st0" d="M71.9,64.8c0,0,7.2-0.4,3.9-9.7c0,0-7.3,1-4.3,9.2c0,0,1.4-5.2,3.2-6.6C74.6,57.7,72.8,60.9,71.9,64.8z"/>
		<path class="st2" d="M80,70.2c0,0,3.3-7.2-7.4-8.8c0,0-2.8,7.6,6.7,9c0,0-4.3-4-4.8-6.6C74.5,63.9,76.7,67.4,80,70.2z"/>
		<path class="st2" d="M94.9,74.1c-0.1,0.2-0.2,0.5-0.4,0.7c-4.4,7.8-9.3,3.1-9.3,3.1c3.4-2,7-2.8,7-2.8c-2.3-0.3-7,2.2-7,2.2
			c2.8-5.4,6.5-4.8,8.4-3.9C94.4,73.7,94.9,74.1,94.9,74.1z"/>
		<path class="st0" d="M82.4,68.6c0,0-0.9,7.3,9,5.6c0,0,0.3-7.5-8.5-6c0,0,4.9,2.3,6.1,4.4C89,72.6,86,70.2,82.4,68.6z"/>
		<path class="st1" d="M81.6,67.4c0,0,6.3-0.1,3.8-8.4c0,0-6.4,0.6-4.2,7.9c0,0,1.4-4.5,3.1-5.7C84.3,61.2,82.6,64,81.6,67.4z"/>
		<path class="st1" d="M75.9,50.8c0,0-3.9-7-11.6,0.8c0,0,4.6,6.8,11.4-0.1c0,0-5.9,1.1-8.2,0C67.4,51.5,71.6,51.7,75.9,50.8z"/>
		<path class="st2" d="M70.4,45.4c0,0-2.5-5.8-9.2-0.3c0,0,3,5.7,9,0.8c0,0-4.7,0.4-6.5-0.7C63.7,45.2,66.9,45.8,70.4,45.4z"/>
		<path class="st1" d="M64.8,40.2c0,0-3.8-6.2-10.5,1.2c0,0,4.4,6,10.4-0.5c0,0-5.3,1.2-7.5,0.3C57.1,41.2,60.9,41.3,64.8,40.2z"/>
		<path class="st1" d="M58.3,36c0,0-4.7-4.3-8.5,3.5c0,0,5.1,4,8.5-3c0,0-4.1,2.3-6.2,2.1C52.2,38.6,55.3,37.8,58.3,36z"/>
		<path class="st0" d="M60.6,33.8c0,0,6.1-5.5-3.5-11.4c0,0-5.8,6.1,2.8,11.3c0,0-2.5-5.6-1.9-8.2C57.9,25.5,58.6,29.7,60.6,33.8z"
			/>
		<path class="st2" d="M56.3,33c0,0,0.1-8-10.5-5c0,0,0.6,8.1,9.9,5.5c0,0-5.6-1.9-7.1-4C48.6,29.5,52.1,31.7,56.3,33z"/>
		<path class="st2" d="M68.2,27.7c0,0,0.1-8-10.5-5c0,0,0.6,8.2,10,5.5c0,0-5.7-1.9-7.2-4C60.5,24.1,64,26.4,68.2,27.7z"/>
		<path class="st1" d="M68.7,22.1c0,0,5-3.8-1.9-8.9c0,0-4.8,4.3,1.3,8.8c0,0-1.5-4.4-0.9-6.4C67.3,15.6,67.5,18.9,68.7,22.1z"/>
		<path class="st2" d="M70.4,24.8c0,0,7.5,3.2,8.7-7.9c0,0-7.9-2.6-9,7.2c0,0,4-4.6,6.6-5.1C76.7,19,73.2,21.3,70.4,24.8z"/>
		<path class="st2" d="M71,27.8c0,0,1.7,7.7,11.1,2.5c0,0-2.3-7.7-10.7-3.1c0,0,5.8,0.6,7.7,2.3C79.1,29.5,75.3,28.1,71,27.8z"/>
		<path class="st1" d="M80,33c0,0,6.4,2.4,7-6.9c0,0-6.7-1.9-7.2,6.3c0,0,3.1-4,5.3-4.5C85,27.9,82.2,30,80,33z"/>
		<path class="st0" d="M80.1,34.1c0,0-1.7,5.3,5.9,5.5c0,0,1.3-5.5-5.5-5.7c0,0,3.4,2.4,3.9,4.2C84.5,38.1,82.6,35.9,80.1,34.1z"/>
		<path class="st2" d="M82,46.7c0,0,6.5,2.3,7-7.1c0,0-6.7-1.8-7.2,6.5c0,0,3.1-4,5.3-4.6C87.1,41.5,84.3,43.6,82,46.7z"/>
		<path class="st1" d="M89.5,40c0,0,3.2-6.3-6.3-8c0,0-2.7,6.6,5.7,8.2c0,0-3.7-3.7-4-6C84.9,34.2,86.7,37.4,89.5,40z"/>
		<path class="st1" d="M91.4,40.2c0,0,6.7,1.5,6-7.8c0,0-6.9-1-6.3,7.3c0,0,2.6-4.4,4.6-5.2C95.7,34.4,93.2,36.9,91.4,40.2z"/>
		<path class="st0" d="M91.4,41.7c0,0-0.4,6.5,8.2,4.5c0,0-0.1-6.6-7.8-4.9c0,0,4.5,1.8,5.6,3.6C97.5,45,94.8,43,91.4,41.7z"/>
		<path class="st1" d="M102.3,61.3c-0.1,0-0.2,0-0.4,0c-12,1.1-10.4-7.6-10.4-7.6c4.4,2.3,7.9,5.4,7.9,5.4c-1.2-2.7-7.2-5.9-7.2-5.9
			c4.8-0.5,7.3,1,8.6,2.8C102.6,58.4,102.3,61.3,102.3,61.3z"/>
		<path class="st2" d="M99.5,49.2c0,0,6.6-0.6,3.2-9c0,0-6.6,1.1-3.7,8.6c0,0,1.1-4.8,2.7-6.2C101.8,42.6,100.2,45.6,99.5,49.2z"/>
		<path class="st1" d="M99.8,51.8c0,0,3.8,5.4,9.4-1.7c0,0-4.3-5.2-9.3,1.1c0,0,4.7-1.5,6.7-0.7C106.7,50.4,103.2,50.6,99.8,51.8z"
			/>
		<path class="st1" d="M109.6,45.6c0,0,0.4-6.6-8.5-4.5c0,0,0.2,6.7,8,4.9c0,0-4.6-1.8-5.7-3.6C103.4,42.4,106.2,44.4,109.6,45.6z"
			/>
		<path class="st2" d="M105.9,37.9c0,0-2.4-5.4-8.5-0.2c0,0,2.8,5.3,8.3,0.7c0,0-4.3,0.4-6-0.6C99.7,37.8,102.7,38.3,105.9,37.9z"/>
		<path class="st0" d="M102.1,34.1c0,0,1.1-7-8.5-5.8c0,0-0.6,7.2,8,6.2c0,0-4.7-2.4-5.7-4.5C95.8,30,98.5,32.4,102.1,34.1z"/>
		<path class="st1" d="M108.7,26.7c-0.8,5-5.6,4.8-5.6,4.8c1-3.1,2.6-5.8,3.3-6.9c0.2-0.4,0.4-0.6,0.4-0.6c-0.2,0.1-0.4,0.3-0.6,0.5
			c-1.9,1.9-3.6,6.5-3.6,6.5c-1.1-4.1-0.1-6.5,1.3-7.8c1.6-1.5,3.7-1.8,4.2-1.9c0.1,0,0.1,0,0.1,0c0,0.1,0,0.1,0,0.2h0
			C108.8,23.6,108.9,25.4,108.7,26.7z"/>
		<path class="st2" d="M107.6,35.7c0,0,6.1-2.4,0.6-9.4c0,0-6,2.9-1.1,9.2c0,0-0.3-4.8,0.9-6.6C108,28.8,107.3,32.1,107.6,35.7z"/>
		<path class="st1" d="M101,29.5c0,0,4.1-6.4-5.8-9.2c0,0-3.6,6.8,5.1,9.4c0,0-3.5-4.3-3.7-6.8C96.7,22.9,98.3,26.4,101,29.5z"/>
		<path class="st0" d="M96.2,19.3c0,0-3.2-8.2-12.7-0.8c0,0,3.9,8.1,12.4,1.5c0,0-6.5,0.4-8.9-1.2C86.9,18.9,91.3,19.7,96.2,19.3z"
			/>
		<path class="st2" d="M97.1,17.3c0,0,6.3,1.1,5.3-7.6c0,0-6.5-0.6-5.6,7.1c0,0,2.2-4.2,4.1-5.1C100.8,11.7,98.6,14.1,97.1,17.3z"/>
		<path class="st1" d="M96,15.7c0,0,3.7-6.9-6.7-9.1c0,0-3.2,7.3,6,9.3c0,0-4-4.2-4.3-6.8C91.1,9.1,93,12.7,96,15.7z"/>
		<path class="st2" d="M113.1,18c0,0,7.6,4.9,11-7c0,0-8.1-4.3-11.2,6.1c0,0,5.2-4.2,8.1-4.4C121,12.9,116.8,14.8,113.1,18z"/>
		<path class="st2" d="M113.5,19.2c0,0-2.6,4.7,4.5,6.3c0,0,2.3-5-4-6.5c0,0,2.7,2.9,2.9,4.7C116.9,23.7,115.6,21.3,113.5,19.2z"/>
		<path class="st1" d="M113.2,32.5c0,0,5.2,1.4,5-6c0,0-5.4-1-5.2,5.5c0,0,2.2-3.3,3.8-4C116.7,28.1,114.7,29.9,113.2,32.5z"/>
		<path class="st2" d="M113.1,40.5c-0.7-0.7-1.1-1.2-1.1-1.2c0.2,0.6,0.6,1.2,1.1,1.8c1.4,1.7,3.5,3.2,3.5,3.2
			c-1.4-0.1-2.6-0.3-3.5-0.7c-4.1-1.7-3-6.2-3-6.2c1.1,0,2,0.1,2.8,0.3c5.9,1.3,4.3,6.3,4.3,6.3C115.4,42.8,114,41.4,113.1,40.5z"/>
		<path class="st0" d="M118.2,40.6c0,0,6.1-2.9-0.1-9.8c0,0-5.9,3.5-0.5,9.5c0,0-0.7-5,0.4-6.9C118,33.5,117.6,37,118.2,40.6z"/>
		<path class="st1" d="M125.3,38.2c-0.1,0.5-0.1,0.9-0.2,1.3l0,0c-0.4,2.3-1.3,3.6-2.2,4.3v0c-2,1.6-4.4,0.5-4.4,0.5
			c2.2-2.6,4.8-4.4,4.9-4.5c-2,0.4-5.1,4-5.1,4C119.2,36.1,125.3,38.2,125.3,38.2z"/>
		<path class="st2" d="M124.9,38c0,0,5.3-4.2-2.2-9.5c0,0-5,4.7,1.6,9.4c0,0-1.7-4.7-1.1-6.8C123.1,31.1,123.5,34.6,124.9,38z"/>
		<path class="st1" d="M128.9,30c0,0,2.5-6.7-7.2-7.3c0,0-2,7,6.6,7.6c0,0-4.1-3.3-4.7-5.5C123.6,24.7,125.8,27.6,128.9,30z"/>
		<path class="st2" d="M128.6,22.4c0,0,2.6-6.9-7.5-7.6c0,0-2.1,7.3,6.9,7.9c0,0-4.3-3.4-4.9-5.8C123.1,16.9,125.4,19.9,128.6,22.4z
			"/>
		<path class="st0" d="M130,19.8c0,0,6.2-2.2,0.9-9.4c0,0-6.1,2.7-1.4,9.2c0,0-0.1-4.9,1.1-6.6C130.5,12.9,129.8,16.2,130,19.8z"/>
		<path class="st1" d="M131.1,22.6c0,0,6.3,3.6,8.5-6.1c0,0-6.7-3.1-8.7,5.5c0,0,4-3.7,6.3-3.9C137.3,18,134,19.8,131.1,22.6z"/>
		<path class="st2" d="M133,29.2c0,0,5.4,3.6,8.1-4.9c0,0-5.8-3.3-8.2,4.3c0,0,3.8-3,6-3C138.8,25.6,135.8,27,133,29.2z"/>
		<path class="st1" d="M132.6,34.4c0,0,4.7,5.2,9.7-3c0,0-5.2-4.9-9.6,2.4c0,0,4.7-2.2,7-1.7C139.6,32.1,136.1,32.7,132.6,34.4z"/>
		<path class="st0" d="M132.8,42.8C132.7,42.8,132.7,42.8,132.8,42.8c-0.3,0.4-0.6,0.7-0.8,1c-0.3,0.3-0.5,0.4-0.5,0.4
			c-0.8-2.6-1-5.1-1.1-6c0,0,0,0,0,0c0-0.2,0-0.3,0-0.3c-0.1,0.2-0.1,0.4-0.2,0.7l0,0c-0.3,2.1,0.7,5.5,0.7,5.5
			c-1.2-1-1.9-1.9-2.3-2.8c-1.6-3.4,1.5-5.8,1.5-5.8c0.4,0.3,0.7,0.6,1.1,1C134,39.3,133.6,41.5,132.8,42.8z"/>
		<path class="st2" d="M140.6,35.7c0,0,7.1-0.5,3.7-9.7c0,0-7.2,1.1-4.1,9.2c0,0,1.3-5.2,3.1-6.6C143.2,28.7,141.4,31.9,140.6,35.7z
			"/>
		<path class="st1" d="M146.1,33.1c0,0,6.1,1.1,5.2-7.2c0,0-6.2-0.7-5.5,6.8c0,0,2.2-4,4-4.9C149.8,27.8,147.6,30.1,146.1,33.1z"/>
		<path class="st0" d="M145.7,35.5c0,0,2,6.1,9.2,1.1c0,0-2.5-6-9-1.6c0,0,4.8,0,6.5,1.2C152.5,36.2,149.3,35.4,145.7,35.5z"/>
		<path class="st2" d="M143.5,36.9c0,0-5.3,4.7,2.9,9.8c0,0,5-5.2-2.2-9.8c0,0,2.1,4.8,1.5,7.1C145.7,44,145.2,40.4,143.5,36.9z"/>
		<path class="st0" d="M135.6,45.8c0,0,3.9,5.9,10.1-1.5c0,0-4.4-5.7-10,0.8c0,0,5.1-1.4,7.2-0.5C142.9,44.7,139.3,44.7,135.6,45.8z
			"/>
		<path class="st1" d="M132.9,59.9c0,0,6.4,3,7.9-6.5c0,0-6.7-2.6-8.1,5.9c0,0,3.6-3.8,5.9-4.2C138.6,55.1,135.5,57,132.9,59.9z"/>
		<path class="st2" d="M134.2,61.6c0,0-1.8,6.9,7.9,6.5c0,0,1.3-7.1-7.3-6.9c0,0,4.4,2.8,5.2,5C140,66.3,137.6,63.6,134.2,61.6z"/>
		<path class="st2" d="M129.7,87.6c0,0,6.9-1.5,2.3-10c0,0-6.9,2.1-2.8,9.6c0,0,0.5-5.2,2.1-6.9C131.3,80.3,130,83.7,129.7,87.6z"/>
		<path class="st1" d="M140,82.2c0,0,5.7-4.3-2.1-10c0,0-5.4,4.8,1.5,9.9c0,0-1.7-5-1-7.2C138.3,74.9,138.6,78.5,140,82.2z"/>
		<path class="st0" d="M144.7,69.2c0,0,2.9-6.5-6.7-7.7c0,0-2.4,6.8,6.1,8c0,0-3.9-3.5-4.4-5.8C139.8,63.6,141.8,66.7,144.7,69.2z"
			/>
		<path class="st2" d="M146.4,61.9c0,0,6.8-4.8-2.2-11.8c0,0-6.5,5.4,1.4,11.7c0,0-1.8-5.9-0.9-8.5C144.7,53.3,145,57.6,146.4,61.9z
			"/>
		<path class="st0" d="M151.8,51.6c0,0,2.2-6-6.6-6.5c0,0-1.7,6.3,6,6.8c0,0-3.8-2.9-4.3-4.9C146.9,46.9,149,49.5,151.8,51.6z"/>
		<path class="st2" d="M153.7,48.1c0,0,8.4,2.4,8.2-9.6c0,0-8.7-1.7-8.6,8.9c0,0,3.6-5.4,6.3-6.3C159.6,41,156.2,44,153.7,48.1z"/>
		<path class="st0" d="M162.1,49.8c0,0,11-1.6,4.7-15.4c0,0-11.1,2.5-5.5,14.8c0,0,1.4-8.1,4.1-10.6C165.3,38.6,163,43.8,162.1,49.8
			z"/>
		<path class="st1" d="M168.5,48.8c0,0,9.6,1.9,8.4-11.4c0,0-9.9-1.2-8.9,10.7c0,0,3.6-6.4,6.5-7.6C174.5,40.3,171,44,168.5,48.8z"
			/>
		<path class="st1" d="M151.3,32.4c0,0,4.7,6.5,11.4-2.2c0,0-5.3-6.2-11.3,1.4c0,0,5.7-1.8,8.2-1C159.6,30.7,155.4,30.9,151.3,32.4z
			"/>
		<path class="st2" d="M167.9,50.9c0,0-0.2,7,9.1,4.6c0,0-0.3-7.1-8.6-5c0,0,4.9,1.8,6.2,3.7C174.6,54.2,171.6,52.2,167.9,50.9z"/>
		<path class="st0" d="M162,53.6c0,0-0.4,5.8,7.4,4.1c0,0-0.1-5.9-7-4.4c0,0,4,1.6,5,3.3C167.4,56.5,164.9,54.7,162,53.6z"/>
		<path class="st0" d="M151.9,62.8c0,0,3.8,5.6,9.6-1.5c0,0-4.3-5.4-9.5,0.9c0,0,4.8-1.4,6.9-0.6C158.9,61.6,155.4,61.7,151.9,62.8z
			"/>
		<path class="st2" d="M155,80.2c0,0,3.3-3-1.9-6.2c0,0-3.1,3.3,1.5,6.1c0,0-1.4-3-1.1-4.4C153.5,75.7,153.9,78,155,80.2z"/>
		<path class="st2" d="M147.4,84.7c0,0-0.8,7.2,8.9,5.4c0,0,0.2-7.4-8.4-5.9c0,0,4.9,2.2,6,4.3C153.9,88.6,151,86.2,147.4,84.7z"/>
		<path class="st2" d="M140.3,90.6c0,0-6.7,2.8-0.4,10.5c0,0,6.5-3.4,1-10.2c0,0,0.4,5.4-0.8,7.4C140.1,98.2,140.7,94.6,140.3,90.6z
			"/>
		<path class="st1" d="M148.3,93.8c0,0-3.9,4.3,3.2,7.7c0,0,3.6-4.6-2.7-7.7c0,0,2.1,3.7,1.9,5.6C150.7,99.4,149.9,96.5,148.3,93.8z
			"/>
		<path class="st0" d="M151.3,93.3c0,0,2.2,5.3,8.3,0.4c0,0-2.6-5.3-8.1-0.9c0,0,4.3-0.3,5.8,0.7C157.4,93.6,154.5,93,151.3,93.3z"
			/>
		<path class="st2" d="M161.1,70.2c0,0,3.3-5.4-5.1-7.7c0,0-2.9,5.8,4.5,7.8c0,0-3.1-3.6-3.2-5.7C157.3,64.6,158.8,67.6,161.1,70.2z
			"/>
		<path class="st0" d="M160.1,72.3c0,0-0.8-5.4-7.5-2.3c0,0,1.2,5.4,7.2,2.7c0,0-4-0.7-5.2-2C154.6,70.7,157.1,71.8,160.1,72.3z"/>
		<path class="st1" d="M162.9,71.2c0,0,5.4,0.3,3.7-6.9c0,0-5.5,0.1-4.1,6.5c0,0,1.5-3.7,3-4.7C165.5,66.2,163.9,68.5,162.9,71.2z"
			/>
		<path class="st2" d="M162,73.6c0,0,3.7,5.3,9.3-1.7c0,0-4.2-5.1-9.2,1.1c0,0,4.6-1.4,6.6-0.7C168.7,72.3,165.4,72.5,162,73.6z"/>
		<path class="st1" d="M173.4,64.1c0,0,3.9-5.2-4.4-8.3c0,0-3.6,5.6,3.8,8.4c0,0-2.8-4-2.7-6.1C170.1,58.1,171.3,61.2,173.4,64.1z"
			/>
		<path class="st0" d="M174.9,63.4c0,0,6.4,4.4,9.7-5.7c0,0-6.9-4-9.8,5c0,0,4.6-3.5,7.1-3.6C181.9,59.1,178.3,60.7,174.9,63.4z"/>
		<path class="st1" d="M173.9,65.6c0,0,0,5.5,7.3,3.3c0,0-0.5-5.6-6.9-3.7c0,0,3.9,1.3,5,2.7C179.3,67.9,176.8,66.4,173.9,65.6z"/>
		<path class="st0" d="M177.7,76.2c0,0,7.1-1.4,2.5-10.2c0,0-7.1,2-3.1,9.8c0,0,0.7-5.3,2.3-7C179.5,68.7,178.1,72.2,177.7,76.2z"/>
		<path class="st1" d="M183.3,74.2c0,0,7.1-0.5,3.7-9.6c0,0-7.2,1.1-4.2,9.2c0,0,1.3-5.1,3.1-6.6C185.9,67.2,184.2,70.4,183.3,74.2z
			"/>
		<path class="st2" d="M183,76.3c0,0,1.3,7.1,10.1,2.6c0,0-1.9-7.1-9.7-3.2c0,0,5.3,0.7,7,2.4C190.4,78.1,187,76.7,183,76.3z"/>
		<path class="st1" d="M180.4,77.3c0,0-3.6,5.3,4.7,7.9c0,0,3.2-5.6-4.1-8c0,0,2.9,3.7,2.9,5.8C183.9,83,182.6,80,180.4,77.3z"/>
		<path class="st0" d="M176,88c0,0,3.6,5.8,9.8-1.2c0,0-4.1-5.6-9.7,0.5c0,0,4.9-1.2,7-0.3C183.1,87.1,179.6,87,176,88z"/>
		<path class="st2" d="M174.5,89.5c0,0-6,3.2,0.5,9.8c0,0,5.8-3.7,0.1-9.6c0,0,0.9,5-0.1,7C175,96.6,175.2,93.1,174.5,89.5z"/>
		<path class="st1" d="M177.7,90.9c0,0-1,7.4,9.1,5.8c0,0,0.4-7.6-8.6-6.3c0,0,5,2.4,6.1,4.6C184.4,95.1,181.4,92.6,177.7,90.9z"/>
		<path class="st1" d="M172.4,88.5c0,0-3.7-4.6-8.3,2.1c0,0,4.1,4.4,8.2-1.5c0,0-4.1,1.6-6,1C166.4,90.1,169.4,89.7,172.4,88.5z"/>
		<path class="st1" d="M152.1,46.2c0,0,4.8-3.3-1.5-8.3c0,0-4.6,3.8,0.9,8.2c0,0-1.3-4.1-0.6-5.9C150.9,40.2,151.1,43.2,152.1,46.2z
			"/>
		<path class="st1" d="M114.6,54.3c0,0,4.5,5.3,9.6-2.6c0,0-5-5-9.6,2c0,0,4.7-1.9,6.9-1.4C121.6,52.3,118,52.8,114.6,54.3z"/>
		<path class="st1" d="M111.8,64.2c0,0,6.6,4.2,9.5-6c0,0-7-3.7-9.6,5.3c0,0,4.5-3.7,7-3.8C118.7,59.7,115,61.4,111.8,64.2z"/>
		<path class="st0" d="M121.2,74.8c0,0,5.6-5.7-4-10.9c0,0-5.3,6.2,3.3,10.9c0,0-2.7-5.3-2.3-7.9C118.1,67,119.1,71,121.2,74.8z"/>
		<path class="st2" d="M126.4,63.4c0,0,1.3-7.9-9.5-6.6c0,0-0.7,8.1,8.9,7c0,0-5.3-2.8-6.4-5.1C119.3,58.7,122.4,61.5,126.4,63.4z"
			/>
		<path class="st2" d="M124.2,51.5c-0.7-0.1-1.2-0.2-1.8-0.3c-5.9-1.3-4.1-6-4.1-6c2.1,1.6,3.6,3.6,4.1,4.3c0,0,0,0,0,0
			c0.1,0.1,0.2,0.2,0.2,0.2c0-0.1-0.1-0.3-0.2-0.4c-0.8-1.8-3.7-4.3-3.7-4.3c2,0.2,3.3,0.8,4.1,1.5
			C125.1,48.5,124.2,51.5,124.2,51.5z"/>
		<path class="st0" d="M101.5,21c0,0,5.5,2.2,6.3-5.9c0,0-5.8-1.8-6.5,5.4c0,0,2.8-3.4,4.7-3.8C106,16.7,103.5,18.5,101.5,21z"/>
		<path class="st1" d="M111.1,18.4c0,0,2.9-6.7-7-7.9c0,0-2.4,7,6.4,8.1c0,0-4.1-3.6-4.5-5.9C106,12.7,108.1,15.9,111.1,18.4z"/>
		<path class="st2" d="M109.9,54.7c-0.3,2.1-0.9,3.4-1.6,4.2c-1.9,2.3-4.6,1.1-4.6,1.1c1.9-2.3,4.3-3.8,4.4-3.9
			c-1.8,0.4-4.6,3.4-4.6,3.4c0.7-5.2,4.1-5.2,5.6-5v0C109.6,54.6,109.9,54.7,109.9,54.7z"/>
		<path class="st1" d="M100.4,72.6c0,0,6.7,2.1,6.9-7.6c0,0-7-1.6-7.2,7c0,0,3-4.3,5.2-5C105.4,67.1,102.6,69.4,100.4,72.6z"/>
		<path class="st2" d="M93.8,63.4c0,0,3.4,6,10-0.8c0,0-4-5.8-9.8,0.2c0,0,5-1,7.1-0.1C101.1,62.7,97.5,62.6,93.8,63.4z"/>
		<path class="st2" d="M90.2,35.6c0,0,6.4-2.1,1.1-9.7c0,0-6.4,2.7-1.7,9.5c0,0,0-5,1.3-6.8C91,28.5,90.1,31.9,90.2,35.6z"/>
		<path class="st1" d="M79.3,36.2L79.3,36.2c-0.1,0.3-0.3,0.5-0.4,0.7c-1.2,1.7-3.3,1.8-3.3,1.8c0.8-3.4,2.4-6.2,2.4-6.2
			c-1.6,1.3-2.9,5.8-2.9,5.8c-1.5-4.2,0-6.2,1.6-7.2c1.1-0.7,2.3-0.9,2.3-0.9c0,0,0,0.1,0,0.1C80,33.1,79.8,35,79.3,36.2z"/>
		<path class="st1" d="M64.8,90.1c0,0,2,2.2,3.5,5c0,0-5.5,1-4.9-6.4c0-0.1,0-0.2,0-0.3c0,0,1.7-0.2,3.2,0.8c0,0,0,0,0,0
			c0,0,0,0,0,0c1.2,0.8,2.2,2.4,1.9,5.5C68.6,94.6,66.5,90.9,64.8,90.1z"/>
		<path class="st0" d="M69.2,27.8c0,1.4-0.2,2.6-0.5,3.5v0c-1.4,4.6-5.7,3.4-5.7,3.4c1.9-2.9,4.4-5.1,4.4-5.1
			c-2,0.7-4.7,4.5-4.7,4.5c0-3.1,1-4.7,2.2-5.5c0.6-0.4,1.2-0.6,1.8-0.8h0c0.4-0.1,0.8-0.1,1.2-0.1h0.2c0.1,0,0.1,0,0.2,0
			C68.9,27.7,69.2,27.8,69.2,27.8z"/>
		<path class="st4" d="M108.7,23.9c-0.8-0.1-1.6-0.3-2.3-0.5c-9.6-2.2-10.6-7.3-10.6-7.3"/>
		<path class="st3" d="M171.3,81.2c0,0-2-11.7,3.2-17.9c0,0-3.7,11.3-1.1,16.9L171.3,81.2z"/>
	</g>
	<polyline class="st4" points="78.5,178.1 78.5,178.1 78.5,178.1 	"/>
	<path class="st3" d="M176.8,90.7c-11.2-9.8-29.3-7.2-29.3-7.2c-1.5,2-3.4,3.7-3.4,3.7c1.8,4.2,6.8,6.1,6.8,6.1
		c-4.7,1.2-8.5-4.3-8.5-4.3c-8.9,6.2-18.5,5.8-18.5,5.8c0.3,7.6-2.2,13.5-5.1,17.9c-2.9,4.4-4.6,9.4-4.8,14.7
		c-0.1,2-0.1,4.2-0.1,6.4c0.1,11.9,1.7,17.6,3.1,27.2c2,8.2,9.1,13.9,17.4,20.5c-0.1-0.1-0.8,0-1-0.1c-0.5-0.1-0.9-0.1-1.4-0.2
		c-5-0.8-9.8-2.6-14.6-4.1c-3.9-1.2-8.1-1.3-12.2-1.3c-3.6,0-7.4,0.3-10.7,1.6c-1.5,0.6-2.8,1.6-4.3,2.1c-0.7,0.2-1.5,0.4-2.2,0.5
		c-3.4,0.5-6.4-0.6-8.1-1.3c0,0-0.1,0-0.1-0.1c0,0-0.1,0-0.1-0.1c0,0-0.1,0-0.1-0.1c-0.1,0-0.2-0.1-0.2-0.1c0,0-0.1,0-0.1,0
		c-0.1,0-0.1-0.1-0.2-0.1c0,0,0,0-0.1,0c0,0-0.1,0-0.1-0.1c-0.1,0-0.1-0.1-0.2-0.1c0,0-0.1,0-0.1,0c12.9-0.7,16.1-11.5,16.3-12.5
		c0,0,0,0,0,0c0,0,0,0,0,0c3.6-15.9,3.7-22.3,3.1-31.8c-0.5-7.4-1.4-12-1.4-12.4c0,0,0,0,0,0c-0.3-2.5-0.8-4.8-1.5-7
		c-2.2-6.6-6.1-11.2-8.8-13.8l0,0c-0.3-0.3-0.6-0.6-0.9-0.9c-0.1-0.1-0.3-0.3-0.4-0.4c0,0,0,0-0.1-0.1c0,0,0,0,0,0
		c0,0-0.1-0.1-0.1-0.1c-0.1-0.1-0.2-0.1-0.3-0.2c0,0,0,0-0.1-0.1c-0.1-0.1-0.1-0.1-0.2-0.2c-0.1-0.1-0.1-0.1-0.2-0.2
		c-0.3-0.2-0.5-0.3-0.5-0.3c-0.6-0.4-1.3-0.9-2-1.3c-4.2-2.4-9.4-2.2-13.3,0.6c-0.2,0.1-0.3,0.2-0.5,0.4c0,0-0.2-2.5,4.8-5.3
		c0,0-1.7-2.6-5.7-3.6c0,0,0,0,0,0c-1.5-1-3.2-0.8-3.2-0.8c0,0.1,0,0.2,0,0.3c-0.4,0-0.9,0-1.4,0c-0.5,0-0.9,0.1-1.4,0.1
		c-2.1,0.3-9.3,1.1-14.7,0.9c0,0-3.1,4.4-8.9,3.3c0,0,5.3-1.5,6.5-4.6c0,0-0.8-0.9-2.5-2.2c-0.7-0.5-1.5-1.1-2.4-1.7
		c-3.3-2.2-8.2-4.6-14.5-5.4c0,0,10.9,0.3,17.9,5.8c1.7,1.3,3.8,2.1,5.9,2.1c1.7,0.1,3.8,0,5.8-0.5c0,0-4.6-4.1-2.4-9.7
		c0,0,2,7.7,5.6,7.8c0,0,1.1-0.1,2.9-0.2c0,0,0,0,0,0v0c3.9-0.2,10.8,0,14.4,3.1c0.9,0.8,1.9,1.5,3.1,2c0.8,0.3,1.8,0.6,2.8,0.8
		c1.5,0.2,2.9,0.6,4.3,1.3c4.4,1.9,7.8,5.5,10.2,8.9c-0.7-1.9-1.6-3.6-2.7-5.3c-1.4-2.1-3.1-4.5-5.3-6.8c0.7-1.4,0.5-2.9,0.5-2.9
		c-1.3,0-2.3,0.1-3.1,0.4c-0.4-0.3-0.7-0.7-1.1-1c0.1-0.2,0.1-0.4,0.1-0.4c-0.5-0.3-0.9-0.5-1.4-0.7c-2.1-1.9-4.1-3.9-6-6
		c-2.4-2.8-5.3-6.4-7.5-9.9c-0.5-0.8-1.4-1.3-2.3-1.3c-4.4,0.1-17.8,0-22-6c-0.5-0.7-1.2-1.1-2-1.2l-10.8-1.9l10.3-0.9
		c0,0-4.1-6.9-2.7-16.4c0,0,1.3,23.8,20.4,23.1c0,0-1.3-1.2-2-3.6c-0.1-0.4-0.2-0.8-0.3-1.2c0.3-0.5,0.6-1,1-1.6
		c0,0-0.4-0.4-1.1-0.7c0-0.3,0-0.5,0-0.8c0-0.4,0.1-0.8,0.1-1.2c0,0,0.2,0.6,0.5,1.4c0.3,0.7,0.6,1.5,1.1,2.4c1.2,2.4,2.9,5,4.8,5.1
		h5.4c0.7,0,1.4,0.3,1.7,0.9c0.5,0.8,1.4,2,2.3,3.3c0,0,0,0,0,0c0.2,0.2,0.4,0.5,0.6,0.8c2,2.6,4.4,5.3,5.9,5.6c0,0,0.3-3.2,2-6
		c0,0,0.4,2.9,0.4,5.5c0,1.9,1,3.8,2.6,4.8c2.6,1.6,6.4,4.1,9,6.7c0.7,0.7,2,0.5,2.4-0.5c0.3-0.9,0.6-2,0.6-3.4c0-2.2-0.7-4.3-2-6
		c0.1-0.2,0.2-0.4,0.4-0.7c0,0-0.5-0.4-1.3-0.8c-2-3.2-4.7-8.4-6-13c-0.5-2-1.8-3.7-3.4-4.9c-3.6-2.6-10.2-6.9-14.6-12
		c-1.9-2.3-4.2-4.3-6.7-5.8c-2-1.3-4.4-2.5-6.5-2.9c0,0,8-2,16,7c-0.1-0.2-2.7-4.2-3.6-10.3c0.3-0.9,0.5-2.1,0.5-3.5
		c0,0-0.3-0.1-0.8-0.1c0-1.6,0.1-3.3,0.3-5c0,0,2.5,14.5,9.6,19.1l0.6-4.9c0.2-0.2,0.3-0.4,0.4-0.7c0.3,4.4,1.5,14.1,7.5,15.4
		c0,0,3.5-8.7,3.5-14.5c0,0,1.2,9.3,0.8,17.9c-0.1,2.8,0.6,5.6,2,8c1.5,2.5,3.6,5.7,6.1,8.6c1.1,1.3,1.9,2.8,2.3,4.5
		c0.5,2.1,1,5.1,1.2,8.7v0.6c0,5.4,1.3,10.6,3.8,15.3c0.2-0.2,0.4-0.4,0.6-0.6c5.8-6.1,4.1-10,4.1-10.2c0,0,0,0,0,0
		c-0.1-0.3-0.1-0.6-0.2-0.8c-0.3-1-1-1.9-1.9-2.5c-3.3-2.5-3.6-7.4-3.6-7.4c0.1-1,0.1-1.9,0.2-2.8c0,0,0,0,0,0
		c0.1-0.4,0.3-0.9,0.3-1.4c0,0-0.1,0-0.3-0.1c0-1.5,0-2.8-0.1-3.8c-0.1-2-0.4-3.1-0.7-3.7c0,0,0-0.1-0.1-0.1
		c-0.2-0.5-0.4-0.6-0.4-0.6c-0.5-0.4-0.9-0.7-1.3-1.1c-0.5-0.4-0.9-0.9-1.3-1.3c-0.4-0.5-0.8-1-1.2-1.5c0,0,0-0.1-0.1-0.1
		c-0.3-0.4-0.5-0.8-0.7-1.2c-0.3-0.5-0.5-0.9-0.7-1.4c-0.1-0.3-0.3-0.6-0.4-0.9c0.1,0,0.2,0,0.3,0c0,0,0,0,0,0c0,0,0,0,0-0.1
		c0-0.5,0-2.2-1-3.7c0-0.5,0-0.9,0-1.3c0.1-2.7,0.9-4.6,0.9-4.6c0.1,2.5,0.6,4.5,1.4,6.2c0.4,0.8,0.8,1.6,1.3,2.3
		c2.3,3.4,5.3,4.8,5.3,4.8c0.5-1.2,0.9-2.5,1.2-3.8c0.7-0.8,1.3-2.2,1.6-4.2c0,0-0.3-0.1-0.7-0.2c1-7.2,0.6-14.3,0.6-14.3
		c-5-2.5-7.7-8.8-7.9-9.2c2.5,4,8,6.2,8,6.2c0.2-1.2,0.2-2.3,0-3.4c-0.3-2-1.1-3.6-1.9-4.8c0,0,0,0,0,0c0,0,0,0,0,0
		c-0.2-0.3-0.5-0.7-0.7-1c0,0,0-0.1-0.1-0.1c0-0.3,0.1-0.6,0.1-0.9c0-0.7-0.1-1.4-0.2-2.3c-0.1-0.3-0.1-0.5-0.2-0.8
		c0.5,0.5,1.3,0.5,1.9,0c0,0,0,0,0.1-0.1c2.3-2.1,3.5-7.3,3.5-7.3c1.8,4.6-1.9,8.9-1.9,8.9c2,3.8,2.9,8.4,3.3,12.5
		c0,0.4,0.1,0.7,0.1,1.1c-0.6-0.2-1.4-0.2-2.2-0.3c0,0-0.9,3.6,2.4,5v0.2c0,2.9-0.2,4.8-0.2,4.8c4.1-2.3,4.2-7.5,4.2-7.9
		c0.5,5.1-1.4,9.4-2.9,11.9c-1.5,2.5-2.7,5.3-3.3,8.2c-1.7,7.6-0.9,15.4,3.3,16.2c5.3,1,9.7-5.6,9.7-5.6c1.7-2.4,2.3-4.8,2.4-6.8
		c0-2.9-1.1-5.7-3-7.8c-0.8-0.9-1.4-1.7-1.8-2.6c-0.3-0.6-0.5-1.2-0.7-1.8c0,0,0,0,0,0c-0.1-0.5-0.2-1-0.3-1.4
		c0-0.3-0.1-0.5-0.1-0.8c0-0.3,0-0.5,0-0.8c0.4,0.1,0.8,0.1,1.2,0.2c0,0,0-0.1,0-0.2c0-0.1,0-0.2,0.1-0.3c0.1-0.7,0.1-2-0.9-2.9
		c0-0.1,0.1-0.3,0.1-0.4c0.1-0.5,0.3-1,0.4-1.4c0-0.1,0.1-0.3,0.1-0.4c0.8-0.6,1.5-1.7,1.9-3.6c0.3-0.5,0.7-1,1.2-1.4
		c0.2-0.2,0.3-0.3,0.5-0.5c5.2-4.9,3.5-17.4,3.5-17.4c4.1,5.7,3.5,11.3,2,15.4c-0.3-0.3-0.7-0.6-1.1-1c0,0-3.1,2.5-1.5,5.8
		c-0.6,0.9-1.1,1.5-1.1,1.5c-4.9,6,0,9.1,0,9.1c1.2-3.2,2.7-5.9,4.5-8.1c0.1-0.1,0.3-0.3,0.5-0.5c0,0,0.1-0.1,0.1-0.1
		c0.1-0.1,0.1-0.2,0.2-0.3c0,0,0,0,0,0c0,0,0,0,0,0c6.5-7.6,14.8-9.4,15.1-9.5c-13.5,7.6-18.3,22.1-18.3,22.1c3.2,2.8,3.9,8,4,10
		c0,0.5,0.1,0.9,0,1.4c-0.7,8.4-14,16.6-14,16.6c2.5,1.1,3.2,5.8,3.2,5.8c8.9,0.4,16-4.6,19.8-8c1.8-1.6,2.7-4,2.5-6.5
		c-1-9.9,4.1-15.7,4.1-15.7c3.6-3.7,2.9-12.5,2.9-12.5c1.6,1.7,2.2,7.4,2.2,7.4c5.6-5.8,16.7-4.6,16.7-4.6
		C149.8,54.5,148,70,148.2,76.1c0.1,2,1.5,3.7,3.4,4c1.7,0.3,1.8,0.5,3.4,0.4c3.3-0.1,6.5-10.2,6.5-10.2c1.8,5.7-2.7,11-2.7,11
		c2.3,0.3,9.8,2.2,9.8,2.2c0.8-1.1,1.7-2.1,2.7-2.9c0.6-0.5,1.2-1,1.8-1.5c6.2-4.6,12.8-4.6,12.9-4.6c-9.2,2-14.9,10.2-14.9,10.2
		C174.9,86.6,176.8,90.6,176.8,90.7z"/>
</g>
<g>
	<g>
		<path class="st5" d="M247.7,12.9h12v51.7h-12V12.9z"/>
		<path class="st5" d="M311.7,41.9v22.7h-11.5v-21c0-6.4-3-9.4-8-9.4c-5.5,0-9.5,3.4-9.5,10.7v19.6h-11.5V24.9h11v4.7
			c3.1-3.4,7.8-5.2,13.1-5.2C304.6,24.3,311.7,29.8,311.7,41.9z"/>
		<path class="st5" d="M318.3,60.9l3.8-8.3c3.5,2.3,8.9,3.8,13.8,3.8c5.3,0,7.3-1.4,7.3-3.6c0-6.5-24,0.1-24-15.7
			c0-7.5,6.8-12.8,18.4-12.8c5.5,0,11.5,1.3,15.3,3.5l-3.8,8.2c-3.9-2.2-7.8-3-11.4-3c-5.2,0-7.4,1.6-7.4,3.7c0,6.8,24,0.2,24,15.9
			c0,7.4-6.9,12.6-18.8,12.6C328.8,65.2,322,63.4,318.3,60.9z"/>
		<path class="st5" d="M387,62.7c-2.4,1.7-5.8,2.5-9.4,2.5c-9.4,0-14.8-4.8-14.8-14.3V34.7h-6.1v-8.9h6.1v-9.7h11.5v9.7h9.9v8.9
			h-9.9v16.2c0,3.4,1.8,5.2,4.9,5.2c1.7,0,3.4-0.5,4.7-1.5L387,62.7z"/>
		<path class="st5" d="M392.1,12.9c0-3.6,2.9-6.4,7.2-6.4c4.3,0,7.2,2.7,7.2,6.2c0,3.8-2.9,6.6-7.2,6.6
			C394.9,19.4,392.1,16.6,392.1,12.9z M393.5,24.9H405v39.7h-11.5V24.9z"/>
		<path class="st5" d="M441.3,62.7c-2.4,1.7-5.8,2.5-9.4,2.5c-9.4,0-14.8-4.8-14.8-14.3V34.7H411v-8.9h6.1v-9.7h11.5v9.7h9.9v8.9
			h-9.9v16.2c0,3.4,1.8,5.2,4.9,5.2c1.7,0,3.4-0.5,4.7-1.5L441.3,62.7z"/>
		<path class="st5" d="M487.9,24.9v39.7h-10.9v-4.7c-3,3.5-7.5,5.3-12.3,5.3c-10,0-17-5.6-17-17.9V24.9h11.5v20.8
			c0,6.6,3,9.6,8.1,9.6c5.3,0,9.2-3.4,9.2-10.7V24.9H487.9z"/>
		<path class="st5" d="M524.2,62.7c-2.4,1.7-5.8,2.5-9.4,2.5c-9.4,0-14.8-4.8-14.8-14.3V34.7h-6.1v-8.9h6.1v-9.7h11.5v9.7h9.9v8.9
			h-9.9v16.2c0,3.4,1.8,5.2,4.9,5.2c1.7,0,3.4-0.5,4.7-1.5L524.2,62.7z"/>
		<path class="st5" d="M568.1,48h-30.1c1.1,4.9,5.3,8,11.4,8c4.2,0,7.2-1.3,10-3.8l6.1,6.6c-3.7,4.2-9.2,6.4-16.4,6.4
			c-13.7,0-22.7-8.6-22.7-20.5c0-11.9,9.1-20.5,21.2-20.5c11.7,0,20.7,7.8,20.7,20.6C568.4,45.8,568.2,47.1,568.1,48z M537.9,41.3
			h19.6c-0.8-5-4.6-8.3-9.7-8.3C542.5,33,538.7,36.2,537.9,41.3z"/>
		<path class="st5" d="M594,44.8c0-12,9.2-20.5,21.9-20.5s21.8,8.5,21.8,20.5c0,12-9.2,20.5-21.8,20.5S594,56.7,594,44.8z M626,44.8
			c0-6.9-4.4-11-10.1-11c-5.8,0-10.2,4.1-10.2,11c0,6.9,4.4,11,10.2,11C621.6,55.8,626,51.6,626,44.8z"/>
		<path class="st5" d="M658,25.8h10.2v8.9h-9.9v30h-11.5v-30h-6.1v-8.9h6.1V24c0-8.9,5.5-14.8,15.4-14.8c3.2,0,6.6,0.7,8.8,2.1
			l-3,8.3c-1.3-0.9-2.9-1.4-4.7-1.4c-3.4,0-5.2,1.8-5.2,5.8V25.8z"/>
	</g>
	<g>
		<path class="st6" d="M289.7,162.5L277,144.1h-0.8h-13.3v18.4h-15.3v-66h28.6c17.6,0,28.6,9.1,28.6,23.9c0,9.9-5,17.1-13.6,20.8
			l14.8,21.2H289.7z M275.4,108.9h-12.4v23h12.4c9.3,0,14-4.3,14-11.5C289.4,113.2,284.7,108.9,275.4,108.9z"/>
		<path class="st6" d="M365.3,141.2h-38.4c1.4,6.3,6.8,10.2,14.5,10.2c5.4,0,9.2-1.6,12.7-4.9l7.8,8.5c-4.7,5.4-11.8,8.2-20.9,8.2
			c-17.5,0-28.9-11-28.9-26.1c0-15.2,11.6-26.1,27-26.1c14.9,0,26.4,10,26.4,26.3C365.6,138.4,365.4,140,365.3,141.2z M326.7,132.7
			h25c-1-6.4-5.8-10.6-12.4-10.6C332.6,122.1,327.8,126.2,326.7,132.7z"/>
		<path class="st6" d="M427.7,111.7V154c0,18.8-10.2,27.5-28.5,27.5c-9.6,0-18.9-2.4-24.9-7l5.8-10.6c4.3,3.5,11.4,5.7,17.9,5.7
			c10.4,0,14.9-4.7,14.9-13.9v-2.2c-3.9,4.2-9.4,6.3-16,6.3c-14,0-25.3-9.7-25.3-24.5c0-14.8,11.3-24.5,25.3-24.5
			c7.1,0,12.9,2.4,16.8,7.3v-6.5H427.7z M413.2,135.5c0-7.4-5.6-12.4-13.3-12.4c-7.7,0-13.4,5-13.4,12.4s5.7,12.4,13.4,12.4
			C407.6,147.9,413.2,142.9,413.2,135.5z"/>
		<path class="st6" d="M490.7,141.2h-38.4c1.4,6.3,6.8,10.2,14.5,10.2c5.4,0,9.2-1.6,12.7-4.9l7.8,8.5c-4.7,5.4-11.8,8.2-20.9,8.2
			c-17.5,0-28.9-11-28.9-26.1c0-15.2,11.6-26.1,27-26.1c14.9,0,26.4,10,26.4,26.3C491,138.4,490.8,140,490.7,141.2z M452.2,132.7h25
			c-1-6.4-5.8-10.6-12.4-10.6C458,122.1,453.2,126.2,452.2,132.7z"/>
		<path class="st6" d="M552.7,133.4v29H538v-26.8c0-8.2-3.8-12-10.3-12c-7.1,0-12.2,4.3-12.2,13.7v25.1h-14.7v-50.7h14v5.9
			c4-4.3,9.9-6.7,16.8-6.7C543.6,111,552.7,118,552.7,133.4z"/>
		<path class="st6" d="M615.9,141.2h-38.4c1.4,6.3,6.8,10.2,14.5,10.2c5.4,0,9.2-1.6,12.7-4.9l7.8,8.5c-4.7,5.4-11.8,8.2-20.9,8.2
			c-17.5,0-28.9-11-28.9-26.1c0-15.2,11.6-26.1,27-26.1c14.9,0,26.4,10,26.4,26.3C616.2,138.4,616,140,615.9,141.2z M577.4,132.7h25
			c-1-6.4-5.8-10.6-12.4-10.6C583.2,122.1,578.4,126.2,577.4,132.7z"/>
		<path class="st6" d="M657.5,111v13.6c-1.2-0.1-2.2-0.2-3.3-0.2c-8.1,0-13.5,4.4-13.5,14.1v23.9H626v-50.7h14v6.7
			C643.6,113.5,649.7,111,657.5,111z"/>
		<path class="st6" d="M710.8,133.5v28.9h-13.8v-6.3c-2.7,4.6-8,7.1-15.5,7.1c-11.9,0-18.9-6.6-18.9-15.4c0-9,6.3-15.2,21.8-15.2
			h11.7c0-6.3-3.8-10-11.7-10c-5.4,0-10.9,1.8-14.6,4.7l-5.3-10.3c5.6-4,13.8-6.1,21.9-6.1C701.9,111,710.8,118.2,710.8,133.5z
			 M696.1,146.4v-5.2H686c-6.9,0-9,2.5-9,5.9c0,3.7,3.1,6.1,8.3,6.1C690.2,153.3,694.4,151,696.1,146.4z"/>
		<path class="st6" d="M756.8,160c-3,2.2-7.4,3.2-12,3.2c-12,0-18.9-6.1-18.9-18.2v-20.8h-7.8v-11.3h7.8v-12.3h14.7v12.3h12.6v11.3
			h-12.6v20.6c0,4.3,2.4,6.7,6.3,6.7c2.2,0,4.3-0.7,5.9-1.9L756.8,160z"/>
		<path class="st6" d="M763.3,96.5c0-4.6,3.7-8.2,9.1-8.2s9.1,3.4,9.1,7.9c0,4.9-3.7,8.5-9.1,8.5S763.3,101.1,763.3,96.5z
			 M765.1,111.7h14.7v50.7h-14.7V111.7z"/>
		<path class="st6" d="M789.7,137.1c0-15.3,11.8-26.1,27.9-26.1c16.1,0,27.8,10.8,27.8,26.1s-11.7,26.1-27.8,26.1
			C801.5,163.2,789.7,152.4,789.7,137.1z M830.5,137.1c0-8.8-5.6-14-12.9-14c-7.4,0-13,5.3-13,14c0,8.8,5.7,14,13,14
			C825,151.1,830.5,145.9,830.5,137.1z"/>
		<path class="st6" d="M907.1,133.4v29h-14.7v-26.8c0-8.2-3.8-12-10.3-12c-7.1,0-12.2,4.3-12.2,13.7v25.1h-14.7v-50.7h14v5.9
			c4-4.3,9.9-6.7,16.8-6.7C898,111,907.1,118,907.1,133.4z"/>
	</g>
</g>
</svg>
